<svg xmlns="http://www.w3.org/2000/svg" width="24" height="24"><g data-name="Padding" fill="#be1622"><path opacity=".2" d="M0 0h24v1H0z"/><path opacity=".2" d="M0 24V0h1v24zM23 24V0h1v24z"/><path opacity=".2" d="M0 23h24v1H0z"/></g><g data-name="Draw" fill="none" stroke="#000" stroke-linecap="round" stroke-linejoin="round" stroke-width="2"><path d="m19 10.17-1.76.94a2 2 0 0 1-2.71-.83l-.74-1.4-.66-1.25A2 2 0 0 1 14 4.92L15.76 4a2 2 0 0 1 2.7.83l1.4 2.65a2 2 0 0 1-.86 2.69ZM7.67 5.28l-5 8 5 8 5.66-5.67-3.59-3.88M19.28 19.19 13.82 8.88Z"/></g></svg>